<svg
  width="54"
  height="62"
  viewBox="0 0 54 62"
  fill="none"
  xmlns="http://www.w3.org/2000/svg"
>
  <path
    d="M39.6368 16.7798V13.367C39.6368 13.0541 39.3783 12.7982 39.0624 12.7982H11.4889C11.173 12.7982 10.9145 13.0541 10.9145 13.367V16.7798C10.9145 17.0927 11.173 17.3486 11.4889 17.3486H39.0624C39.3783 17.3486 39.6368 17.0927 39.6368 16.7798ZM11.4889 23.0367C11.173 23.0367 10.9145 23.2927 10.9145 23.6055V27.0183C10.9145 27.3312 11.173 27.5872 11.4889 27.5872H24.7012C25.0172 27.5872 25.2757 27.3312 25.2757 27.0183V23.6055C25.2757 23.2927 25.0172 23.0367 24.7012 23.0367H11.4889ZM21.829 55.1743H5.17002V5.11927H45.3813V29.578C45.3813 29.8908 45.6398 30.1468 45.9558 30.1468H49.9769C50.2928 30.1468 50.5513 29.8908 50.5513 29.578V15.9266V2.27523C50.5513 1.01674 49.5245 0 48.2535 0H2.29779C1.02682 0 0 1.01674 0 2.27523V58.0183C0 59.2768 1.02682 60.2936 2.29779 60.2936H21.829C22.1449 60.2936 22.4034 60.0376 22.4034 59.7248V55.7431C22.4034 55.4303 22.1449 55.1743 21.829 55.1743ZM53.8329 58.836L47.1334 52.2023C48.7346 50.1048 49.6897 47.4883 49.6897 44.6514C49.6897 37.7404 44.0314 32.1376 37.0518 32.1376C30.0723 32.1376 24.414 37.7404 24.414 44.6514C24.414 51.5624 30.0723 57.1651 37.0518 57.1651C39.6225 57.1651 42.0064 56.4044 44.0026 55.1032L50.8026 61.8365C50.9175 61.9502 51.0611 62 51.2048 62C51.3484 62 51.4992 61.9431 51.6069 61.8365L53.8329 59.6323C53.8858 59.5801 53.9279 59.5181 53.9565 59.4498C53.9852 59.3814 54 59.3082 54 59.2342C54 59.1602 53.9852 59.0869 53.9565 59.0186C53.9279 58.9502 53.8858 58.8882 53.8329 58.836ZM37.0518 52.6147C32.607 52.6147 29.0096 49.0525 29.0096 44.6514C29.0096 40.2502 32.607 36.6881 37.0518 36.6881C41.4966 36.6881 45.0941 40.2502 45.0941 44.6514C45.0941 49.0525 41.4966 52.6147 37.0518 52.6147Z"
    fill="#002B70"
  />
  <path
    d="M39.6413 43.125C39.5618 42.8485 39.45 42.6042 39.3061 42.392C39.1622 42.1761 38.986 41.9943 38.7777 41.8466C38.5732 41.6951 38.3383 41.5795 38.0732 41.5C37.8118 41.4205 37.522 41.3807 37.2038 41.3807C36.6091 41.3807 36.0864 41.5284 35.6357 41.8239C35.1887 42.1193 34.8402 42.5492 34.5902 43.1136C34.3402 43.6742 34.2152 44.3598 34.2152 45.1705C34.2152 45.9811 34.3383 46.6705 34.5845 47.2386C34.8307 47.8068 35.1792 48.2405 35.63 48.5398C36.0807 48.8352 36.6129 48.983 37.2266 48.983C37.7834 48.983 38.2588 48.8845 38.6527 48.6875C39.0504 48.4867 39.3535 48.2045 39.5618 47.8409C39.7739 47.4773 39.88 47.0473 39.88 46.5511L40.38 46.625H37.38V44.7727H42.2493V46.2386C42.2493 47.2614 42.0334 48.1402 41.6016 48.875C41.1697 49.6061 40.575 50.1705 39.8175 50.5682C39.0599 50.9621 38.1925 51.1591 37.2152 51.1591C36.1243 51.1591 35.166 50.9186 34.3402 50.4375C33.5144 49.9527 32.8705 49.2652 32.4084 48.375C31.95 47.4811 31.7209 46.4205 31.7209 45.1932C31.7209 44.25 31.8572 43.4091 32.13 42.6705C32.4065 41.928 32.7929 41.2992 33.2891 40.7841C33.7853 40.2689 34.3629 39.8769 35.022 39.608C35.6811 39.339 36.3951 39.2045 37.1641 39.2045C37.8232 39.2045 38.4368 39.3011 39.005 39.4943C39.5732 39.6837 40.0769 39.9527 40.5163 40.3011C40.9595 40.6496 41.3213 41.0644 41.6016 41.5455C41.8819 42.0227 42.0618 42.5492 42.1413 43.125H39.6413Z"
    fill="#910F17"
  />
</svg>