<svg width="54" height="63" viewBox="0 0 54 63" fill="none" xmlns="http://www.w3.org/2000/svg">
<path d="M39.6368 17.2798V13.867C39.6368 13.5541 39.3783 13.2982 39.0624 13.2982H11.4889C11.173 13.2982 10.9145 13.5541 10.9145 13.867V17.2798C10.9145 17.5927 11.173 17.8486 11.4889 17.8486H39.0624C39.3783 17.8486 39.6368 17.5927 39.6368 17.2798ZM11.4889 23.5367C11.173 23.5367 10.9145 23.7927 10.9145 24.1055V27.5183C10.9145 27.8312 11.173 28.0872 11.4889 28.0872H24.7012C25.0172 28.0872 25.2757 27.8312 25.2757 27.5183V24.1055C25.2757 23.7927 25.0172 23.5367 24.7012 23.5367H11.4889ZM21.829 55.6743H5.17002V5.61927H45.3813V30.078C45.3813 30.3908 45.6398 30.6468 45.9558 30.6468H49.9769C50.2928 30.6468 50.5513 30.3908 50.5513 30.078V16.4266V2.77523C50.5513 1.51674 49.5245 0.5 48.2535 0.5H2.29779C1.02682 0.5 0 1.51674 0 2.77523V58.5183C0 59.7768 1.02682 60.7936 2.29779 60.7936H21.829C22.1449 60.7936 22.4034 60.5376 22.4034 60.2248V56.2431C22.4034 55.9303 22.1449 55.6743 21.829 55.6743ZM53.8329 59.336L47.1334 52.7023C48.7346 50.6048 49.6897 47.9883 49.6897 45.1514C49.6897 38.2404 44.0314 32.6376 37.0518 32.6376C30.0723 32.6376 24.414 38.2404 24.414 45.1514C24.414 52.0624 30.0723 57.6651 37.0518 57.6651C39.6225 57.6651 42.0064 56.9044 44.0026 55.6032L50.8026 62.3365C50.9175 62.4502 51.0611 62.5 51.2048 62.5C51.3484 62.5 51.4992 62.4431 51.6069 62.3365L53.8329 60.1323C53.8858 60.0801 53.9279 60.0181 53.9565 59.9498C53.9852 59.8814 54 59.8082 54 59.7342C54 59.6602 53.9852 59.5869 53.9565 59.5186C53.9279 59.4502 53.8858 59.3882 53.8329 59.336ZM37.0518 53.1147C32.607 53.1147 29.0096 49.5525 29.0096 45.1514C29.0096 40.7502 32.607 37.1881 37.0518 37.1881C41.4966 37.1881 45.0941 40.7502 45.0941 45.1514C45.0941 49.5525 41.4966 53.1147 37.0518 53.1147Z" fill="black"/>
<path d="M39.6413 43.625C39.5618 43.3485 39.45 43.1042 39.3061 42.892C39.1622 42.6761 38.986 42.4943 38.7777 42.3466C38.5732 42.1951 38.3383 42.0795 38.0732 42C37.8118 41.9205 37.522 41.8807 37.2038 41.8807C36.6091 41.8807 36.0864 42.0284 35.6357 42.3239C35.1887 42.6193 34.8402 43.0492 34.5902 43.6136C34.3402 44.1742 34.2152 44.8598 34.2152 45.6705C34.2152 46.4811 34.3383 47.1705 34.5845 47.7386C34.8307 48.3068 35.1792 48.7405 35.63 49.0398C36.0807 49.3352 36.6129 49.483 37.2266 49.483C37.7834 49.483 38.2588 49.3845 38.6527 49.1875C39.0504 48.9867 39.3535 48.7045 39.5618 48.3409C39.7739 47.9773 39.88 47.5473 39.88 47.0511L40.38 47.125H37.38V45.2727H42.2493V46.7386C42.2493 47.7614 42.0334 48.6402 41.6016 49.375C41.1697 50.1061 40.575 50.6705 39.8175 51.0682C39.0599 51.4621 38.1925 51.6591 37.2152 51.6591C36.1243 51.6591 35.166 51.4186 34.3402 50.9375C33.5144 50.4527 32.8705 49.7652 32.4084 48.875C31.95 47.9811 31.7209 46.9205 31.7209 45.6932C31.7209 44.75 31.8572 43.9091 32.13 43.1705C32.4065 42.428 32.7929 41.7992 33.2891 41.2841C33.7853 40.7689 34.3629 40.3769 35.022 40.108C35.6811 39.839 36.3951 39.7045 37.1641 39.7045C37.8232 39.7045 38.4368 39.8011 39.005 39.9943C39.5732 40.1837 40.0769 40.4527 40.5163 40.8011C40.9595 41.1496 41.3213 41.5644 41.6016 42.0455C41.8819 42.5227 42.0618 43.0492 42.1413 43.625H39.6413Z" fill="#BF1D28"/>
</svg>
