<svg width="24" height="25" viewBox="0 0 24 25" fill="none" xmlns="http://www.w3.org/2000/svg">
<g clip-path="url(#clip0_18833_2283)">
<path fill-rule="evenodd" clip-rule="evenodd" d="M3.70711 2.79289C3.31658 2.40237 2.68342 2.40237 2.29289 2.79289C1.90237 3.18342 1.90237 3.81658 2.29289 4.20711L5.8779 7.79211C5.64415 7.99806 5.41875 8.21789 5.20282 8.4516L2.39637 11.4892C1.86788 12.0612 1.86788 12.9388 2.39637 13.5108L5.20283 16.5484C8.1446 19.7324 12.8448 20.3404 16.458 18.3722L20.2929 22.2071C20.6834 22.5976 21.3166 22.5976 21.7071 22.2071C22.0976 21.8166 22.0976 21.1834 21.7071 20.7929L3.70711 2.79289ZM14.9647 16.8789L13.6648 15.579C13.1697 15.8473 12.6022 15.9999 11.9998 15.9999C10.0668 15.9999 8.49981 14.4329 8.49981 12.4999C8.49981 11.8976 8.6525 11.3301 8.92072 10.8349L7.2959 9.21012C7.07852 9.39474 6.87001 9.59431 6.67182 9.80882L4.18541 12.5L6.67182 15.1912C8.83148 17.5287 12.2156 18.0913 14.9647 16.8789ZM11.9998 13.9999C12.0278 13.9999 12.0557 13.9992 12.0833 13.9977L10.5021 12.4164C10.5006 12.4441 10.4998 12.4719 10.4998 12.4999C10.4998 13.3284 11.1714 13.9999 11.9998 13.9999Z" fill="#808089"/>
<path d="M19.8146 12.5L18.0952 14.361L19.5105 15.7763L21.6036 13.5108C22.1321 12.9388 22.1321 12.0612 21.6036 11.4892L18.7972 8.4516C16.3785 5.83373 12.7712 4.95726 9.55655 5.82221L11.2702 7.53592C13.4576 7.31999 15.7287 8.07762 17.3282 9.80882L19.8146 12.5Z" fill="#808089"/>
</g>
<defs>
<clipPath id="clip0_18833_2283">
<rect width="20" height="20" fill="white" transform="translate(2 2.5)"/>
</clipPath>
</defs>
</svg>
