<svg width="24" height="25" viewBox="0 0 24 25" fill="none" xmlns="http://www.w3.org/2000/svg">
<g clip-path="url(#clip0_18833_1615)">
<path fill-rule="evenodd" clip-rule="evenodd" d="M12 9C10.067 9 8.5 10.567 8.5 12.5C8.5 14.433 10.067 16 12 16C13.933 16 15.5 14.433 15.5 12.5C15.5 10.567 13.933 9 12 9ZM10.5 12.5C10.5 11.6716 11.1716 11 12 11C12.8284 11 13.5 11.6716 13.5 12.5C13.5 13.3284 12.8284 14 12 14C11.1716 14 10.5 13.3284 10.5 12.5Z" fill="#808089"/>
<path fill-rule="evenodd" clip-rule="evenodd" d="M18.7972 8.4516C15.1612 4.51613 8.83884 4.51613 5.20282 8.4516L2.39637 11.4892C1.86788 12.0612 1.86788 12.9388 2.39637 13.5108L5.20283 16.5484C8.83884 20.4839 15.1612 20.4839 18.7972 16.5484L21.6036 13.5108C22.1321 12.9388 22.1321 12.0612 21.6036 11.4892L18.7972 8.4516ZM6.67182 9.80882C9.51601 6.73039 14.484 6.73039 17.3282 9.80882L19.8146 12.5L17.3282 15.1912C14.484 18.2696 9.51601 18.2696 6.67182 15.1912L4.18541 12.5L6.67182 9.80882Z" fill="#808089"/>
</g>
<defs>
<clipPath id="clip0_18833_1615">
<rect width="20" height="20" fill="white" transform="translate(2 2.5)"/>
</clipPath>
</defs>
</svg>
