<svg width="24" height="25" viewBox="0 0 24 25" fill="none" xmlns="http://www.w3.org/2000/svg">
<g clip-path="url(#clip0_18833_2277)">
<path d="M13 14.5001C13 13.9478 12.5523 13.5001 12 13.5001C11.4477 13.5001 11 13.9478 11 14.5001V16.5001C11 17.0523 11.4477 17.5001 12 17.5001C12.5523 17.5001 13 17.0523 13 16.5001V14.5001Z" fill="#808089"/>
<path fill-rule="evenodd" clip-rule="evenodd" d="M7 7.50006V8.50006H6C4.89543 8.50006 4 9.39549 4 10.5001V20.5001C4 21.6046 4.89543 22.5001 6 22.5001H18C19.1046 22.5001 20 21.6046 20 20.5001V10.5001C20 9.39549 19.1046 8.50006 18 8.50006H17V7.50006C17 4.73864 14.7614 2.50006 12 2.50006C9.23858 2.50006 7 4.73864 7 7.50006ZM12 4.50006C10.3431 4.50006 9 5.84321 9 7.50006V8.50006H15V7.50006C15 5.84321 13.6569 4.50006 12 4.50006ZM6 20.5001V10.5001H18V20.5001H6Z" fill="#808089"/>
</g>
<defs>
<clipPath id="clip0_18833_2277">
<rect width="20" height="20" fill="white" transform="translate(2 2.5)"/>
</clipPath>
</defs>
</svg>
