<svg width="24" height="25" viewBox="0 0 24 25" fill="none" xmlns="http://www.w3.org/2000/svg">
<path fill-rule="evenodd" clip-rule="evenodd" d="M12 5.5C10.3431 5.5 9 6.84315 9 8.5C9 10.1569 10.3431 11.5 12 11.5C13.6569 11.5 15 10.1569 15 8.5C15 6.84315 13.6569 5.5 12 5.5ZM15.3344 12.2259C16.3567 11.3104 17 9.98032 17 8.5C17 5.73858 14.7614 3.5 12 3.5C9.23858 3.5 7 5.73858 7 8.5C7 9.98031 7.6433 11.3104 8.66559 12.2259C5.91213 13.4901 4 16.2718 4 19.5C4 20.0523 4.44772 20.5 5 20.5C5.55228 20.5 6 20.0523 6 19.5C6 16.1863 8.68629 13.5 12 13.5C15.3137 13.5 18 16.1863 18 19.5C18 20.0523 18.4477 20.5 19 20.5C19.5523 20.5 20 20.0523 20 19.5C20 16.2718 18.0879 13.4901 15.3344 12.2259Z" fill="#808089"/>
</svg>
